<mxfile host="app.diagrams.net" modified="2024-04-14T13:58:50.793Z" agent="Mozilla/5.0 (Windows NT 10.0; Win64; x64) AppleWebKit/537.36 (KHTML, like Gecko) Chrome/122.0.0.0 Safari/537.36" etag="yp_sYBVfj1a9yHsiXW3M" version="24.2.5" type="github">
  <diagram name="Page-1" id="zGRDSkvSyPyk1XcWt85u">
    <mxGraphModel dx="1246" dy="616" grid="1" gridSize="10" guides="1" tooltips="1" connect="1" arrows="1" fold="1" page="1" pageScale="1" pageWidth="827" pageHeight="1169" math="0" shadow="0">
      <root>
        <mxCell id="0" />
        <mxCell id="1" parent="0" />
        <mxCell id="6Em6FgkJUio4V_5BVNig-5" value="Gerecht" style="swimlane;fontStyle=1;align=center;verticalAlign=top;childLayout=stackLayout;horizontal=1;startSize=26;horizontalStack=0;resizeParent=1;resizeParentMax=0;resizeLast=0;collapsible=1;marginBottom=0;whiteSpace=wrap;html=1;" vertex="1" parent="1">
          <mxGeometry x="150" y="365" width="200" height="220" as="geometry" />
        </mxCell>
        <mxCell id="6Em6FgkJUio4V_5BVNig-6" value="- id : int&lt;div&gt;- naam : String&lt;/div&gt;&lt;div&gt;- ingredienten : String []&lt;/div&gt;&lt;div&gt;- afbeelding : String&lt;/div&gt;&lt;div&gt;- soort : SoortGerecht&lt;/div&gt;" style="text;strokeColor=none;fillColor=none;align=left;verticalAlign=top;spacingLeft=4;spacingRight=4;overflow=hidden;rotatable=0;points=[[0,0.5],[1,0.5]];portConstraint=eastwest;whiteSpace=wrap;html=1;" vertex="1" parent="6Em6FgkJUio4V_5BVNig-5">
          <mxGeometry y="26" width="200" height="94" as="geometry" />
        </mxCell>
        <mxCell id="6Em6FgkJUio4V_5BVNig-7" value="" style="line;strokeWidth=1;fillColor=none;align=left;verticalAlign=middle;spacingTop=-1;spacingLeft=3;spacingRight=3;rotatable=0;labelPosition=right;points=[];portConstraint=eastwest;strokeColor=inherit;" vertex="1" parent="6Em6FgkJUio4V_5BVNig-5">
          <mxGeometry y="120" width="200" height="8" as="geometry" />
        </mxCell>
        <mxCell id="6Em6FgkJUio4V_5BVNig-8" value="+ getNaam(): String&lt;div&gt;&lt;div&gt;+ getNaam(): String&amp;nbsp; &amp;nbsp; &amp;nbsp; &amp;nbsp; &amp;nbsp; &amp;nbsp; &amp;nbsp; &amp;nbsp; &amp;nbsp; &amp;nbsp; &amp;nbsp; &amp;nbsp;&amp;nbsp;&lt;/div&gt;&lt;div&gt;+ getIngredienten(): String[]&amp;nbsp; &amp;nbsp; &amp;nbsp; &amp;nbsp; &amp;nbsp; &amp;nbsp; &amp;nbsp;&lt;/div&gt;&lt;div&gt;+ getAfbeelding(): String&amp;nbsp; &amp;nbsp; &amp;nbsp; &amp;nbsp; &amp;nbsp; &amp;nbsp; &amp;nbsp; &amp;nbsp; &amp;nbsp;&amp;nbsp;&lt;/div&gt;&lt;div&gt;+ getSoort(): SoortGerecht&amp;nbsp;&lt;/div&gt;&lt;/div&gt;" style="text;strokeColor=none;fillColor=none;align=left;verticalAlign=top;spacingLeft=4;spacingRight=4;overflow=hidden;rotatable=0;points=[[0,0.5],[1,0.5]];portConstraint=eastwest;whiteSpace=wrap;html=1;" vertex="1" parent="6Em6FgkJUio4V_5BVNig-5">
          <mxGeometry y="128" width="200" height="92" as="geometry" />
        </mxCell>
        <mxCell id="6Em6FgkJUio4V_5BVNig-9" value="Galerij" style="swimlane;fontStyle=1;align=center;verticalAlign=top;childLayout=stackLayout;horizontal=1;startSize=26;horizontalStack=0;resizeParent=1;resizeParentMax=0;resizeLast=0;collapsible=1;marginBottom=0;whiteSpace=wrap;html=1;" vertex="1" parent="1">
          <mxGeometry x="480" y="475" width="280" height="110" as="geometry" />
        </mxCell>
        <mxCell id="6Em6FgkJUio4V_5BVNig-10" value="- gerechten : Gerecht []" style="text;strokeColor=none;fillColor=none;align=left;verticalAlign=top;spacingLeft=4;spacingRight=4;overflow=hidden;rotatable=0;points=[[0,0.5],[1,0.5]];portConstraint=eastwest;whiteSpace=wrap;html=1;" vertex="1" parent="6Em6FgkJUio4V_5BVNig-9">
          <mxGeometry y="26" width="280" height="26" as="geometry" />
        </mxCell>
        <mxCell id="6Em6FgkJUio4V_5BVNig-11" value="" style="line;strokeWidth=1;fillColor=none;align=left;verticalAlign=middle;spacingTop=-1;spacingLeft=3;spacingRight=3;rotatable=0;labelPosition=right;points=[];portConstraint=eastwest;strokeColor=inherit;" vertex="1" parent="6Em6FgkJUio4V_5BVNig-9">
          <mxGeometry y="52" width="280" height="8" as="geometry" />
        </mxCell>
        <mxCell id="6Em6FgkJUio4V_5BVNig-12" value="+ voegGerechtToe (gerecht : Gerecht) : void&lt;div&gt;+ laadGalerij () : void&lt;/div&gt;" style="text;strokeColor=none;fillColor=none;align=left;verticalAlign=top;spacingLeft=4;spacingRight=4;overflow=hidden;rotatable=0;points=[[0,0.5],[1,0.5]];portConstraint=eastwest;whiteSpace=wrap;html=1;" vertex="1" parent="6Em6FgkJUio4V_5BVNig-9">
          <mxGeometry y="60" width="280" height="50" as="geometry" />
        </mxCell>
        <mxCell id="6Em6FgkJUio4V_5BVNig-17" value="SoortGerecht" style="swimlane;fontStyle=0;childLayout=stackLayout;horizontal=1;startSize=26;fillColor=none;horizontalStack=0;resizeParent=1;resizeParentMax=0;resizeLast=0;collapsible=1;marginBottom=0;whiteSpace=wrap;html=1;" vertex="1" parent="1">
          <mxGeometry x="-130" y="450" width="140" height="100" as="geometry" />
        </mxCell>
        <mxCell id="6Em6FgkJUio4V_5BVNig-18" value="VOORGERECHT&lt;div&gt;HOOFDGERECHT&lt;/div&gt;&lt;div&gt;BIJGERECHT&lt;/div&gt;&lt;div&gt;DESSERT&lt;/div&gt;" style="text;strokeColor=none;fillColor=none;align=left;verticalAlign=top;spacingLeft=4;spacingRight=4;overflow=hidden;rotatable=0;points=[[0,0.5],[1,0.5]];portConstraint=eastwest;whiteSpace=wrap;html=1;" vertex="1" parent="6Em6FgkJUio4V_5BVNig-17">
          <mxGeometry y="26" width="140" height="74" as="geometry" />
        </mxCell>
        <mxCell id="6Em6FgkJUio4V_5BVNig-21" value="Filter" style="swimlane;fontStyle=1;align=center;verticalAlign=top;childLayout=stackLayout;horizontal=1;startSize=26;horizontalStack=0;resizeParent=1;resizeParentMax=0;resizeLast=0;collapsible=1;marginBottom=0;whiteSpace=wrap;html=1;" vertex="1" parent="1">
          <mxGeometry x="80" y="710" width="310" height="86" as="geometry" />
        </mxCell>
        <mxCell id="6Em6FgkJUio4V_5BVNig-22" value="- filterOpties : String []" style="text;strokeColor=none;fillColor=none;align=left;verticalAlign=top;spacingLeft=4;spacingRight=4;overflow=hidden;rotatable=0;points=[[0,0.5],[1,0.5]];portConstraint=eastwest;whiteSpace=wrap;html=1;" vertex="1" parent="6Em6FgkJUio4V_5BVNig-21">
          <mxGeometry y="26" width="310" height="26" as="geometry" />
        </mxCell>
        <mxCell id="6Em6FgkJUio4V_5BVNig-23" value="" style="line;strokeWidth=1;fillColor=none;align=left;verticalAlign=middle;spacingTop=-1;spacingLeft=3;spacingRight=3;rotatable=0;labelPosition=right;points=[];portConstraint=eastwest;strokeColor=inherit;" vertex="1" parent="6Em6FgkJUio4V_5BVNig-21">
          <mxGeometry y="52" width="310" height="8" as="geometry" />
        </mxCell>
        <mxCell id="6Em6FgkJUio4V_5BVNig-24" value="+ filterGerechten (filterOptie : String) : Gerecht []" style="text;strokeColor=none;fillColor=none;align=left;verticalAlign=top;spacingLeft=4;spacingRight=4;overflow=hidden;rotatable=0;points=[[0,0.5],[1,0.5]];portConstraint=eastwest;whiteSpace=wrap;html=1;" vertex="1" parent="6Em6FgkJUio4V_5BVNig-21">
          <mxGeometry y="60" width="310" height="26" as="geometry" />
        </mxCell>
        <mxCell id="6Em6FgkJUio4V_5BVNig-1" value="Gebruiker" style="swimlane;fontStyle=1;align=center;verticalAlign=top;childLayout=stackLayout;horizontal=1;startSize=26;horizontalStack=0;resizeParent=1;resizeParentMax=0;resizeLast=0;collapsible=1;marginBottom=0;whiteSpace=wrap;html=1;" vertex="1" parent="1">
          <mxGeometry x="170" y="80" width="200" height="150" as="geometry" />
        </mxCell>
        <mxCell id="6Em6FgkJUio4V_5BVNig-2" value="- id : int&lt;div&gt;- naam : String&lt;/div&gt;" style="text;strokeColor=none;fillColor=none;align=left;verticalAlign=top;spacingLeft=4;spacingRight=4;overflow=hidden;rotatable=0;points=[[0,0.5],[1,0.5]];portConstraint=eastwest;whiteSpace=wrap;html=1;" vertex="1" parent="6Em6FgkJUio4V_5BVNig-1">
          <mxGeometry y="26" width="200" height="44" as="geometry" />
        </mxCell>
        <mxCell id="6Em6FgkJUio4V_5BVNig-3" value="" style="line;strokeWidth=1;fillColor=none;align=left;verticalAlign=middle;spacingTop=-1;spacingLeft=3;spacingRight=3;rotatable=0;labelPosition=right;points=[];portConstraint=eastwest;strokeColor=inherit;" vertex="1" parent="6Em6FgkJUio4V_5BVNig-1">
          <mxGeometry y="70" width="200" height="8" as="geometry" />
        </mxCell>
        <mxCell id="6Em6FgkJUio4V_5BVNig-4" value="+ selecteerGerecht () : void&lt;div&gt;+ bekijkGalerij () : void&lt;/div&gt;&lt;div&gt;+ ontvangAanbevelingen () : void&lt;/div&gt;" style="text;strokeColor=none;fillColor=none;align=left;verticalAlign=top;spacingLeft=4;spacingRight=4;overflow=hidden;rotatable=0;points=[[0,0.5],[1,0.5]];portConstraint=eastwest;whiteSpace=wrap;html=1;" vertex="1" parent="6Em6FgkJUio4V_5BVNig-1">
          <mxGeometry y="78" width="200" height="72" as="geometry" />
        </mxCell>
        <mxCell id="6Em6FgkJUio4V_5BVNig-37" value="bezit" style="endArrow=none;html=1;endSize=12;startArrow=none;startSize=14;startFill=0;edgeStyle=orthogonalEdgeStyle;rounded=0;exitX=0.472;exitY=0.986;exitDx=0;exitDy=0;exitPerimeter=0;endFill=0;" edge="1" parent="1" source="6Em6FgkJUio4V_5BVNig-4">
          <mxGeometry x="-0.0007" relative="1" as="geometry">
            <mxPoint x="190" y="200" as="sourcePoint" />
            <mxPoint x="300" y="365" as="targetPoint" />
            <mxPoint as="offset" />
          </mxGeometry>
        </mxCell>
        <mxCell id="6Em6FgkJUio4V_5BVNig-38" value="&lt;font style=&quot;font-size: 16px;&quot;&gt;*&lt;/font&gt;" style="edgeLabel;resizable=0;html=1;align=left;verticalAlign=top;" connectable="0" vertex="1" parent="6Em6FgkJUio4V_5BVNig-37">
          <mxGeometry x="-1" relative="1" as="geometry">
            <mxPoint x="16" y="11" as="offset" />
          </mxGeometry>
        </mxCell>
        <mxCell id="6Em6FgkJUio4V_5BVNig-39" value="&lt;font style=&quot;font-size: 16px;&quot;&gt;*&lt;/font&gt;" style="edgeLabel;resizable=0;html=1;align=right;verticalAlign=top;" connectable="0" vertex="1" parent="6Em6FgkJUio4V_5BVNig-37">
          <mxGeometry x="1" relative="1" as="geometry">
            <mxPoint x="30" y="-35" as="offset" />
          </mxGeometry>
        </mxCell>
        <mxCell id="6Em6FgkJUio4V_5BVNig-42" value="bevat" style="endArrow=none;html=1;endSize=12;startArrow=open;startSize=14;startFill=0;edgeStyle=orthogonalEdgeStyle;rounded=0;exitX=1;exitY=0.5;exitDx=0;exitDy=0;entryX=-0.004;entryY=0.22;entryDx=0;entryDy=0;entryPerimeter=0;endFill=0;" edge="1" parent="1" source="6Em6FgkJUio4V_5BVNig-8" target="6Em6FgkJUio4V_5BVNig-12">
          <mxGeometry y="-10" relative="1" as="geometry">
            <mxPoint x="320" y="530" as="sourcePoint" />
            <mxPoint x="440" y="530" as="targetPoint" />
            <mxPoint as="offset" />
          </mxGeometry>
        </mxCell>
        <mxCell id="6Em6FgkJUio4V_5BVNig-43" value="&lt;font style=&quot;font-size: 16px;&quot;&gt;*&lt;/font&gt;" style="edgeLabel;resizable=0;html=1;align=left;verticalAlign=top;" connectable="0" vertex="1" parent="6Em6FgkJUio4V_5BVNig-42">
          <mxGeometry x="-1" relative="1" as="geometry">
            <mxPoint x="10" as="offset" />
          </mxGeometry>
        </mxCell>
        <mxCell id="6Em6FgkJUio4V_5BVNig-44" value="1" style="edgeLabel;resizable=0;html=1;align=right;verticalAlign=top;" connectable="0" vertex="1" parent="6Em6FgkJUio4V_5BVNig-42">
          <mxGeometry x="1" relative="1" as="geometry">
            <mxPoint x="-9" as="offset" />
          </mxGeometry>
        </mxCell>
        <mxCell id="6Em6FgkJUio4V_5BVNig-51" value="heeftSoort" style="endArrow=none;html=1;endSize=12;startArrow=open;startSize=14;startFill=0;edgeStyle=orthogonalEdgeStyle;rounded=0;exitX=1.029;exitY=0.32;exitDx=0;exitDy=0;exitPerimeter=0;entryX=-0.017;entryY=0.936;entryDx=0;entryDy=0;entryPerimeter=0;endFill=0;" edge="1" parent="1" source="6Em6FgkJUio4V_5BVNig-18" target="6Em6FgkJUio4V_5BVNig-6">
          <mxGeometry relative="1" as="geometry">
            <mxPoint y="350" as="sourcePoint" />
            <mxPoint x="160" y="350" as="targetPoint" />
          </mxGeometry>
        </mxCell>
        <mxCell id="6Em6FgkJUio4V_5BVNig-52" value="&lt;font style=&quot;font-size: 16px;&quot;&gt;*&lt;/font&gt;" style="edgeLabel;resizable=0;html=1;align=left;verticalAlign=top;" connectable="0" vertex="1" parent="6Em6FgkJUio4V_5BVNig-51">
          <mxGeometry x="-1" relative="1" as="geometry" />
        </mxCell>
        <mxCell id="6Em6FgkJUio4V_5BVNig-53" value="1" style="edgeLabel;resizable=0;html=1;align=right;verticalAlign=top;" connectable="0" vertex="1" parent="6Em6FgkJUio4V_5BVNig-51">
          <mxGeometry x="1" relative="1" as="geometry" />
        </mxCell>
        <mxCell id="6Em6FgkJUio4V_5BVNig-54" value="filtert" style="endArrow=open;html=1;endSize=12;startArrow=open;startSize=14;startFill=0;edgeStyle=orthogonalEdgeStyle;rounded=0;exitX=0.413;exitY=0.993;exitDx=0;exitDy=0;exitPerimeter=0;entryX=0.5;entryY=0;entryDx=0;entryDy=0;" edge="1" parent="1" source="6Em6FgkJUio4V_5BVNig-8" target="6Em6FgkJUio4V_5BVNig-21">
          <mxGeometry relative="1" as="geometry">
            <mxPoint x="160" y="650" as="sourcePoint" />
            <mxPoint x="320" y="650" as="targetPoint" />
          </mxGeometry>
        </mxCell>
        <mxCell id="6Em6FgkJUio4V_5BVNig-55" value="&lt;font style=&quot;font-size: 16px;&quot;&gt;*&lt;/font&gt;" style="edgeLabel;resizable=0;html=1;align=left;verticalAlign=top;" connectable="0" vertex="1" parent="6Em6FgkJUio4V_5BVNig-54">
          <mxGeometry x="-1" relative="1" as="geometry">
            <mxPoint x="17" y="1" as="offset" />
          </mxGeometry>
        </mxCell>
        <mxCell id="6Em6FgkJUio4V_5BVNig-56" value="&lt;font style=&quot;font-size: 16px;&quot;&gt;*&lt;/font&gt;" style="edgeLabel;resizable=0;html=1;align=right;verticalAlign=top;" connectable="0" vertex="1" parent="6Em6FgkJUio4V_5BVNig-54">
          <mxGeometry x="1" relative="1" as="geometry">
            <mxPoint x="35" y="-30" as="offset" />
          </mxGeometry>
        </mxCell>
      </root>
    </mxGraphModel>
  </diagram>
</mxfile>
